<svg xmlns="http://www.w3.org/2000/svg" fill="#444" viewBox="0 0 24 24">
	<path d="M8.249 8.999h3.001v3.001h-3.001zM12.75 8.999h3.001v3.001h-3.001zM17.252 8.999h3.001v3.001h-3.001zM3.747 18.002h3.001v3.001h-3.001zM8.249 18.002h3.001v3.001h-3.001zM12.75 18.002h3.001v3.001h-3.001zM8.249 13.501h3.001v3.001h-3.001zM12.75 13.501h3.001v3.001h-3.001zM17.252 13.501h3.001v3.001h-3.001zM3.747 13.501h3.001v3.001h-3.001zM20.253-0.004v1.501h-3.001v-1.501h-10.504v1.501h-3.001v-1.501h-3.001v24.009h22.508v-24.009h-3.001zM21.753 22.504h-19.507v-16.506h19.507v16.506z"></path>
</svg>